<svg xmlns="http://www.w3.org/2000/svg" width="640" height="640" viewBox="0 0 480 480.294"><path d="M244.102 8.125c-1.247-.063-2.52-.125-3.817-.125-1.293 0-2.566.063-3.816.125 1.25-.063 2.523-.125 3.816-.125 1.297 0 2.57.031 3.817.125Zm0 0" style="stroke:none;fill-rule:nonzero;fill:#ffda44;fill-opacity:1"/><path d="M246.375 8.207a1.05 1.05 0 0 0-.488-.082c.164-.012.328.016.48.082 43.36 3.2 81.36 41.121 104.88 97.598-23.52-56.477-61.52-94.399-104.88-97.598a1.017 1.017 0 0 0-.48-.082h-1.785c-1.247-.063-2.52-.125-3.817-.125-1.293 0-2.566.063-3.816.125h-1.781a1.017 1.017 0 0 0-.481.082c-43.36 3.2-81.36 41.121-104.879 97.598 23.52-56.477 61.52-94.399 104.879-97.598-125.715 3.3-225.91 106.164-225.91 231.918 0 125.758 100.195 228.617 225.91 231.922.152.062.316.09.48.078a.969.969 0 0 1-.48-.078c-43.36-3.2-81.36-41.121-104.879-97.602 23.52 56.48 61.52 94.403 104.879 97.602a.969.969 0 0 0 .48.078h.88c1.519.082 3.12.16 4.718.16 1.602 0 3.203-.078 4.723-.16h.879a.969.969 0 0 0 .48-.078c43.36-3.2 81.36-41.121 104.88-97.602-23.52 56.48-61.52 94.403-104.88 97.602a.969.969 0 0 1-.48.078c.164.012.328-.016.48-.078 125.715-3.305 225.906-106.164 225.906-231.922 0-125.754-100.191-228.617-225.906-231.918Zm173.992 85.598Zm-60.082 10.32c13.258 0 24 10.746 24 24 0 13.258-10.742 24-24 24-13.254 0-24-10.742-24-24 0-13.254 10.746-24 24-24Zm0 272c-13.254 0-24-10.742-24-24 0-13.254 10.746-24 24-24 13.258 0 24 10.746 24 24 0 13.258-10.742 24-24 24Zm20.8-12.078Zm-4.8-123.922h-112c0 13.258-10.742 24-24 24v72a370.775 370.775 0 0 0-96.32 12.32c.23 1.215.34 2.446.32 3.68a23.696 23.696 0 0 1-14.957 22.16 22.843 22.843 0 0 1-9.043 1.84 23.84 23.84 0 0 1-20.797-12.078 24.143 24.143 0 0 1-3.203-11.922 23.797 23.797 0 0 1 18.32-23.277 376.825 376.825 0 0 1-10.32-88.723 376.792 376.792 0 0 1 10.32-88.719c-10.78-2.55-18.375-12.203-18.32-23.281a24.128 24.128 0 0 1 3.203-11.918 23.851 23.851 0 0 1 20.797-12.082c3.11-.008 6.184.617 9.043 1.84a23.7 23.7 0 0 1 14.957 22.16c.02 1.234-.09 2.469-.32 3.68a370.608 370.608 0 0 0 96.32 12.32v72c13.258 0 24 10.746 24 24h112Zm0 0" style="stroke:none;fill-rule:nonzero;fill:#7ed63e;fill-opacity:1"/><path d="M216.285 240.125h-112a376.825 376.825 0 0 0 10.32 88.723 22.666 22.666 0 0 1 5.68-.723c11.84-.027 21.914 8.617 23.68 20.32a370.775 370.775 0 0 1 96.32-12.32v-72c-13.254 0-24-10.742-24-24Zm0 0" style="stroke:none;fill-rule:nonzero;fill:#7ed63e;fill-opacity:1"/><path d="M143.965 131.805c.23-1.211.34-2.446.32-3.68a23.7 23.7 0 0 0-14.957-22.16 22.843 22.843 0 0 0-9.043-1.84 23.851 23.851 0 0 0-20.797 12.082 24.128 24.128 0 0 0-3.203 11.918c-.055 11.078 7.54 20.73 18.32 23.281 1.856.48 3.766.723 5.68.719 11.84.031 21.914-8.613 23.68-20.32Zm0 0" style="stroke:none;fill-rule:nonzero;fill:#f1f2f2;fill-opacity:1"/><path d="M240.285 472.285c-1.597 0-3.2-.078-4.719-.16 1.52.082 3.121.16 4.72.16 1.6 0 3.202-.078 4.722-.16-1.52.082-3.121.16-4.723.16Zm0 0" style="stroke:none;fill-rule:nonzero;fill:#ffda44;fill-opacity:1"/><path d="M120.285 328.125c-1.914 0-3.824.242-5.68.723a23.797 23.797 0 0 0-18.32 23.277 24.143 24.143 0 0 0 3.203 11.922 23.84 23.84 0 0 0 20.797 12.078c3.11.008 6.184-.617 9.043-1.84a23.696 23.696 0 0 0 14.957-22.16c.02-1.234-.09-2.465-.32-3.68-1.766-11.703-11.84-20.347-23.68-20.32Zm0 0" style="stroke:none;fill-rule:nonzero;fill:#f1f2f2;fill-opacity:1"/><path d="M240.285 216.125v-72a370.608 370.608 0 0 1-96.32-12.32c-1.766 11.707-11.84 20.351-23.68 20.32a22.484 22.484 0 0 1-5.68-.719 376.792 376.792 0 0 0-10.32 88.719h112c0-13.254 10.746-24 24-24Zm0 0" style="stroke:none;fill-rule:nonzero;fill:#7ed63e;fill-opacity:1"/><path d="M384.285 128.125c0 13.258-10.742 24-24 24-13.254 0-24-10.742-24-24 0-13.254 10.746-24 24-24 13.258 0 24 10.746 24 24ZM384.285 352.125c0 13.258-10.742 24-24 24-13.254 0-24-10.742-24-24 0-13.254 10.746-24 24-24 13.258 0 24 10.746 24 24ZM264.285 240.125c0 13.258-10.742 24-24 24-13.254 0-24-10.742-24-24 0-13.254 10.746-24 24-24 13.258 0 24 10.746 24 24Zm0 0" style="stroke:none;fill-rule:nonzero;fill:#f1f2f2;fill-opacity:1"/><path d="M232.285 264.125h16v208h-16ZM232.285 8.125h16v208h-16ZM264.285 232.125h208v16h-208ZM8.285 232.125h208v16h-208Zm0 0" style="stroke:none;fill-rule:nonzero;fill:#5eac24;fill-opacity:1"/><path d="m373.742 330.734-15.55-3.777a367.248 367.248 0 0 0 10.093-86.832 367.271 367.271 0 0 0-10.094-86.832l15.551-3.773a383.427 383.427 0 0 1 10.543 90.605 383.436 383.436 0 0 1-10.543 90.61ZM240.285 480.285c-1.742 0-3.48-.078-5.125-.168l-1.738-.11c-45.152-3.425-85.785-40.8-111.48-102.48l14.769-6.16c23.336 56 59.078 89.824 98.086 92.703l.8.055c3.008.152 6.024.152 9.032 0l1.176-.063c39.011-2.878 74.754-36.671 98.09-92.703l14.77 6.16c-25.435 61.063-65.481 98.262-110.067 102.399l-.313.129-3.277.078c-1.242.082-2.977.16-4.723.16Zm-5.344-9.695.067 1.535.137-1.941ZM106.832 330.734a383.44 383.44 0 0 1-10.547-90.609 383.43 383.43 0 0 1 10.547-90.605l15.55 3.773a367.479 367.479 0 0 0-10.097 86.832 367.455 367.455 0 0 0 10.098 86.832ZM343.863 108.926c-23.336-56-59.082-89.824-98.09-92.703l-.765-.098a89.289 89.289 0 0 0-9.031 0l-1.18.066c-39.008 2.88-74.75 36.672-98.086 92.704l-14.77-6.16c25.434-61.063 65.48-98.266 110.067-102.4l.277-.128 3.281-.082a96.288 96.288 0 0 1 9.848 0l1.738.113c45.149 3.426 85.782 40.801 111.477 102.48ZM245.566 8.125l-.136 1.945.199-.406ZM96.238 123.52a223.804 223.804 0 0 1-40.75-23.25l9.438-12.942a207.813 207.813 0 0 0 37.808 21.598ZM384.336 123.52l-6.496-14.594a207.813 207.813 0 0 0 37.808-21.598l9.438 12.942a223.804 223.804 0 0 1-40.75 23.25ZM240.285 152.125a377.018 377.018 0 0 1-98.398-12.598l4.175-15.441a361.32 361.32 0 0 0 94.223 12.039 361.37 361.37 0 0 0 94.235-12l4.175 15.441a376.903 376.903 0 0 1-98.41 12.559ZM64.926 392.926l-9.438-12.946a223.82 223.82 0 0 1 40.742-23.246l6.497 14.625a207.6 207.6 0 0 0-37.801 21.567ZM334.52 356.168a361.41 361.41 0 0 0-94.235-12.043 361.381 361.381 0 0 0-94.23 12.043l-4.176-15.441a377.08 377.08 0 0 1 98.406-12.602 377.03 377.03 0 0 1 98.403 12.602ZM415.648 392.926a207.583 207.583 0 0 0-37.808-21.598l6.496-14.625a223.933 223.933 0 0 1 40.75 23.277Zm0 0" style="stroke:none;fill-rule:nonzero;fill:#5eac24;fill-opacity:1"/><path d="M360.285 160.125c-17.672 0-32-14.324-32-32 0-17.672 14.328-32 32-32 17.676 0 32 14.328 32 32 0 17.676-14.324 32-32 32Zm0-48c-8.836 0-16 7.164-16 16s7.164 16 16 16c8.84 0 16-7.164 16-16s-7.16-16-16-16ZM360.285 384.125c-17.672 0-32-14.324-32-32 0-17.672 14.328-32 32-32 17.676 0 32 14.328 32 32 0 17.676-14.324 32-32 32Zm0-48c-8.836 0-16 7.164-16 16s7.164 16 16 16c8.84 0 16-7.164 16-16s-7.16-16-16-16ZM240.285 272.125c-17.672 0-32-14.324-32-32 0-17.672 14.328-32 32-32 17.676 0 32 14.328 32 32 0 17.676-14.324 32-32 32Zm0-48c-8.836 0-16 7.164-16 16s7.164 16 16 16c8.84 0 16-7.164 16-16s-7.16-16-16-16ZM132.48 98.621c-3.851-1.66-8-2.508-12.195-2.496-16.113.078-29.656 12.129-31.61 28.125-1.952 16 8.298 30.95 23.923 34.898a30.39 30.39 0 0 0 7.687.977c15.621-.031 28.934-11.336 31.496-26.742v-.184c0-.082 0-.152.059-.242.297-1.594.445-3.21.445-4.832a31.418 31.418 0 0 0-19.805-29.504Zm3.567 32c-1.2 7.777-7.895 13.516-15.762 13.504a15.253 15.253 0 0 1-3.847-.504 15.801 15.801 0 0 1-12.153-15.496 16.203 16.203 0 0 1 2.16-8 15.999 15.999 0 0 1 29.84 8c.02.707-.039 1.41-.168 2.105Zm0 0" style="stroke:none;fill-rule:nonzero;fill:#4e901e;fill-opacity:1"/><path d="M426.688 88.652A239.199 239.199 0 0 0 248.023.246l-.28-.121h-2.321a96.44 96.44 0 0 0-9.856 0l-3.199.082-.082.047C102.81 4.496.066 110.727.148 240.274.227 369.82 103.102 475.921 232.582 480.007l2.785.117c1.598.082 3.281.168 4.953.168 1.672 0 3.352-.086 4.72-.168l3.198-.078.047-.047c91.137-3.012 172.703-57.395 210.528-140.367 37.824-82.973 25.375-180.207-32.125-250.98Zm-12.41 292.801a223.124 223.124 0 0 1-168.087 82.594h-1.754l-.152.078a71.915 71.915 0 0 1-8 0l-1.894-.11C113.055 460.77 16.375 361.474 16.375 240.095c0-121.38 96.68-220.676 218.016-223.918h1.754l.14-.051c2.668-.14 5.336-.14 8 0l1.899.113a223.114 223.114 0 0 1 168.101 82.52c66.883 82.383 66.883 200.36 0 282.746Zm0 0" style="stroke:none;fill-rule:nonzero;fill:#4e901e;fill-opacity:1"/><path d="M120.285 384.125c-17.672 0-32-14.324-32-32 0-17.672 14.328-32 32-32 17.676 0 32 14.328 32 32 0 17.676-14.324 32-32 32Zm0-48c-8.836 0-16 7.164-16 16s7.164 16 16 16c8.84 0 16-7.164 16-16s-7.16-16-16-16Zm0 0" style="stroke:none;fill-rule:nonzero;fill:#4e901e;fill-opacity:1"/></svg>
